<svg xmlns="http://www.w3.org/2000/svg" xmlns:xlink="http://www.w3.org/1999/xlink" width="500" zoomAndPan="magnify" viewBox="0 0 375 374.999991" height="500" preserveAspectRatio="xMidYMid meet" version="1.0"><defs><clipPath id="d8b547a346"><path d="M 15 0 L 360 0 C 363.976562 0 367.792969 1.582031 370.605469 4.394531 C 373.417969 7.207031 375 11.023438 375 15 L 375 360 C 375 363.976562 373.417969 367.792969 370.605469 370.605469 C 367.792969 373.417969 363.976562 375 360 375 L 15 375 C 11.023438 375 7.207031 373.417969 4.394531 370.605469 C 1.582031 367.792969 0 363.976562 0 360 L 0 15 C 0 11.023438 1.582031 7.207031 4.394531 4.394531 C 7.207031 1.582031 11.023438 0 15 0 Z M 15 0 " clip-rule="nonzero"/></clipPath><clipPath id="8d871c9be1"><path d="M 74.023438 110.578125 L 296.992188 110.578125 L 296.992188 347.816406 L 74.023438 347.816406 Z M 74.023438 110.578125 " clip-rule="nonzero"/></clipPath><clipPath id="5880444fcd"><path d="M -123.617188 -11.183594 L -123.617188 457.210938 C -123.617188 498.632812 -90.039062 532.210938 -48.617188 532.210938 L 419.777344 532.210938 C 461.199219 532.210938 494.777344 498.632812 494.777344 457.210938 L 494.777344 -11.183594 C 494.777344 -52.605469 461.199219 -86.183594 419.777344 -86.183594 L -48.617188 -86.183594 C -90.039062 -86.183594 -123.617188 -52.605469 -123.617188 -11.183594 Z M -123.617188 -11.183594 " clip-rule="nonzero"/></clipPath><clipPath id="373f36b6f6"><path d="M -47.71875 -85.28125 L 418.878906 -85.28125 C 460.300781 -85.28125 493.878906 -51.703125 493.878906 -10.28125 L 493.878906 456.3125 C 493.878906 497.734375 460.300781 531.3125 418.878906 531.3125 L -47.71875 531.3125 C -89.140625 531.3125 -122.71875 497.734375 -122.71875 456.3125 L -122.71875 -10.28125 C -122.71875 -51.703125 -89.140625 -85.28125 -47.71875 -85.28125 Z M -47.71875 -85.28125 " clip-rule="nonzero"/></clipPath><clipPath id="3a73bbe880"><path d="M 135.898438 110.578125 L 235.117188 110.578125 C 251.527344 110.578125 267.265625 117.09375 278.867188 128.695312 C 290.46875 140.304688 296.992188 156.035156 296.992188 172.453125 L 296.992188 285.632812 C 296.992188 302.042969 290.46875 317.78125 278.867188 329.382812 C 267.265625 340.984375 251.527344 347.507812 235.117188 347.507812 L 135.898438 347.507812 C 119.480469 347.507812 103.75 340.984375 92.140625 329.382812 C 80.539062 317.78125 74.023438 302.042969 74.023438 285.632812 L 74.023438 172.453125 C 74.023438 156.035156 80.539062 140.304688 92.140625 128.695312 C 103.75 117.09375 119.480469 110.578125 135.898438 110.578125 Z M 135.898438 110.578125 " clip-rule="nonzero"/></clipPath><clipPath id="c59cb94697"><path d="M 74.023438 110.578125 L 296.773438 110.578125 L 296.773438 346.941406 L 74.023438 346.941406 Z M 74.023438 110.578125 " clip-rule="nonzero"/></clipPath><clipPath id="52fb52b36d"><path d="M -123.617188 -11.183594 L -123.617188 457.210938 C -123.617188 498.632812 -90.039062 532.210938 -48.617188 532.210938 L 419.777344 532.210938 C 461.199219 532.210938 494.777344 498.632812 494.777344 457.210938 L 494.777344 -11.183594 C 494.777344 -52.605469 461.199219 -86.183594 419.777344 -86.183594 L -48.617188 -86.183594 C -90.039062 -86.183594 -123.617188 -52.605469 -123.617188 -11.183594 Z M -123.617188 -11.183594 " clip-rule="nonzero"/></clipPath><clipPath id="c1a424d10e"><path d="M -47.71875 -85.28125 L 418.878906 -85.28125 C 460.300781 -85.28125 493.878906 -51.703125 493.878906 -10.28125 L 493.878906 456.3125 C 493.878906 497.734375 460.300781 531.3125 418.878906 531.3125 L -47.71875 531.3125 C -89.140625 531.3125 -122.71875 497.734375 -122.71875 456.3125 L -122.71875 -10.28125 C -122.71875 -51.703125 -89.140625 -85.28125 -47.71875 -85.28125 Z M -47.71875 -85.28125 " clip-rule="nonzero"/></clipPath><clipPath id="4ba5ab1f26"><path d="M 135.890625 110.578125 L 235.109375 110.578125 C 251.519531 110.578125 267.253906 117.09375 278.859375 128.695312 C 290.460938 140.304688 296.980469 156.035156 296.980469 172.445312 L 296.980469 285.625 C 296.980469 302.035156 290.460938 317.777344 278.859375 329.378906 C 267.253906 340.980469 251.519531 347.5 235.109375 347.5 L 135.890625 347.5 C 119.480469 347.5 103.75 340.980469 92.140625 329.378906 C 80.539062 317.777344 74.023438 302.035156 74.023438 285.625 L 74.023438 172.445312 C 74.023438 156.035156 80.539062 140.304688 92.140625 128.695312 C 103.75 117.09375 119.480469 110.578125 135.890625 110.578125 Z M 135.890625 110.578125 " clip-rule="nonzero"/></clipPath><clipPath id="0067d53746"><path d="M 16 38 L 269 38 L 269 319 L 16 319 Z M 16 38 " clip-rule="nonzero"/></clipPath><clipPath id="91e3b61864"><path d="M -123.617188 -11.183594 L -123.617188 457.210938 C -123.617188 498.632812 -90.039062 532.210938 -48.617188 532.210938 L 419.777344 532.210938 C 461.199219 532.210938 494.777344 498.632812 494.777344 457.210938 L 494.777344 -11.183594 C 494.777344 -52.605469 461.199219 -86.183594 419.777344 -86.183594 L -48.617188 -86.183594 C -90.039062 -86.183594 -123.617188 -52.605469 -123.617188 -11.183594 Z M -123.617188 -11.183594 " clip-rule="nonzero"/></clipPath><clipPath id="3c2b24dca9"><path d="M -47.71875 -85.28125 L 418.878906 -85.28125 C 460.300781 -85.28125 493.878906 -51.703125 493.878906 -10.28125 L 493.878906 456.3125 C 493.878906 497.734375 460.300781 531.3125 418.878906 531.3125 L -47.71875 531.3125 C -89.140625 531.3125 -122.71875 497.734375 -122.71875 456.3125 L -122.71875 -10.28125 C -122.71875 -51.703125 -89.140625 -85.28125 -47.71875 -85.28125 Z M -47.71875 -85.28125 " clip-rule="nonzero"/></clipPath><clipPath id="83ec7cbef9"><path d="M 46 368 L 93 368 L 93 375 L 46 375 Z M 46 368 " clip-rule="nonzero"/></clipPath><clipPath id="b6ccedfd28"><path d="M -123.617188 -11.183594 L -123.617188 457.210938 C -123.617188 498.632812 -90.039062 532.210938 -48.617188 532.210938 L 419.777344 532.210938 C 461.199219 532.210938 494.777344 498.632812 494.777344 457.210938 L 494.777344 -11.183594 C 494.777344 -52.605469 461.199219 -86.183594 419.777344 -86.183594 L -48.617188 -86.183594 C -90.039062 -86.183594 -123.617188 -52.605469 -123.617188 -11.183594 Z M -123.617188 -11.183594 " clip-rule="nonzero"/></clipPath><clipPath id="aa1fae56ec"><path d="M -47.71875 -85.28125 L 418.878906 -85.28125 C 460.300781 -85.28125 493.878906 -51.703125 493.878906 -10.28125 L 493.878906 456.3125 C 493.878906 497.734375 460.300781 531.3125 418.878906 531.3125 L -47.71875 531.3125 C -89.140625 531.3125 -122.71875 497.734375 -122.71875 456.3125 L -122.71875 -10.28125 C -122.71875 -51.703125 -89.140625 -85.28125 -47.71875 -85.28125 Z M -47.71875 -85.28125 " clip-rule="nonzero"/></clipPath><clipPath id="b51d7a25ce"><path d="M 94 368 L 115 368 L 115 375 L 94 375 Z M 94 368 " clip-rule="nonzero"/></clipPath><clipPath id="ff6292d406"><path d="M -123.617188 -11.183594 L -123.617188 457.210938 C -123.617188 498.632812 -90.039062 532.210938 -48.617188 532.210938 L 419.777344 532.210938 C 461.199219 532.210938 494.777344 498.632812 494.777344 457.210938 L 494.777344 -11.183594 C 494.777344 -52.605469 461.199219 -86.183594 419.777344 -86.183594 L -48.617188 -86.183594 C -90.039062 -86.183594 -123.617188 -52.605469 -123.617188 -11.183594 Z M -123.617188 -11.183594 " clip-rule="nonzero"/></clipPath><clipPath id="e23f06e69a"><path d="M -47.71875 -85.28125 L 418.878906 -85.28125 C 460.300781 -85.28125 493.878906 -51.703125 493.878906 -10.28125 L 493.878906 456.3125 C 493.878906 497.734375 460.300781 531.3125 418.878906 531.3125 L -47.71875 531.3125 C -89.140625 531.3125 -122.71875 497.734375 -122.71875 456.3125 L -122.71875 -10.28125 C -122.71875 -51.703125 -89.140625 -85.28125 -47.71875 -85.28125 Z M -47.71875 -85.28125 " clip-rule="nonzero"/></clipPath><clipPath id="a151d97be2"><path d="M 117 368 L 161 368 L 161 375 L 117 375 Z M 117 368 " clip-rule="nonzero"/></clipPath><clipPath id="1291e9bcf4"><path d="M -123.617188 -11.183594 L -123.617188 457.210938 C -123.617188 498.632812 -90.039062 532.210938 -48.617188 532.210938 L 419.777344 532.210938 C 461.199219 532.210938 494.777344 498.632812 494.777344 457.210938 L 494.777344 -11.183594 C 494.777344 -52.605469 461.199219 -86.183594 419.777344 -86.183594 L -48.617188 -86.183594 C -90.039062 -86.183594 -123.617188 -52.605469 -123.617188 -11.183594 Z M -123.617188 -11.183594 " clip-rule="nonzero"/></clipPath><clipPath id="66dd8203e5"><path d="M -47.71875 -85.28125 L 418.878906 -85.28125 C 460.300781 -85.28125 493.878906 -51.703125 493.878906 -10.28125 L 493.878906 456.3125 C 493.878906 497.734375 460.300781 531.3125 418.878906 531.3125 L -47.71875 531.3125 C -89.140625 531.3125 -122.71875 497.734375 -122.71875 456.3125 L -122.71875 -10.28125 C -122.71875 -51.703125 -89.140625 -85.28125 -47.71875 -85.28125 Z M -47.71875 -85.28125 " clip-rule="nonzero"/></clipPath><clipPath id="2a04ebc86d"><path d="M 162 368 L 205 368 L 205 375 L 162 375 Z M 162 368 " clip-rule="nonzero"/></clipPath><clipPath id="dfe45af8b9"><path d="M -123.617188 -11.183594 L -123.617188 457.210938 C -123.617188 498.632812 -90.039062 532.210938 -48.617188 532.210938 L 419.777344 532.210938 C 461.199219 532.210938 494.777344 498.632812 494.777344 457.210938 L 494.777344 -11.183594 C 494.777344 -52.605469 461.199219 -86.183594 419.777344 -86.183594 L -48.617188 -86.183594 C -90.039062 -86.183594 -123.617188 -52.605469 -123.617188 -11.183594 Z M -123.617188 -11.183594 " clip-rule="nonzero"/></clipPath><clipPath id="8cb07c4fb6"><path d="M -47.71875 -85.28125 L 418.878906 -85.28125 C 460.300781 -85.28125 493.878906 -51.703125 493.878906 -10.28125 L 493.878906 456.3125 C 493.878906 497.734375 460.300781 531.3125 418.878906 531.3125 L -47.71875 531.3125 C -89.140625 531.3125 -122.71875 497.734375 -122.71875 456.3125 L -122.71875 -10.28125 C -122.71875 -51.703125 -89.140625 -85.28125 -47.71875 -85.28125 Z M -47.71875 -85.28125 " clip-rule="nonzero"/></clipPath><clipPath id="c624d8f9d9"><path d="M 207 368 L 255 368 L 255 375 L 207 375 Z M 207 368 " clip-rule="nonzero"/></clipPath><clipPath id="26dad9e2cb"><path d="M -123.617188 -11.183594 L -123.617188 457.210938 C -123.617188 498.632812 -90.039062 532.210938 -48.617188 532.210938 L 419.777344 532.210938 C 461.199219 532.210938 494.777344 498.632812 494.777344 457.210938 L 494.777344 -11.183594 C 494.777344 -52.605469 461.199219 -86.183594 419.777344 -86.183594 L -48.617188 -86.183594 C -90.039062 -86.183594 -123.617188 -52.605469 -123.617188 -11.183594 Z M -123.617188 -11.183594 " clip-rule="nonzero"/></clipPath><clipPath id="4142bf5030"><path d="M -47.71875 -85.28125 L 418.878906 -85.28125 C 460.300781 -85.28125 493.878906 -51.703125 493.878906 -10.28125 L 493.878906 456.3125 C 493.878906 497.734375 460.300781 531.3125 418.878906 531.3125 L -47.71875 531.3125 C -89.140625 531.3125 -122.71875 497.734375 -122.71875 456.3125 L -122.71875 -10.28125 C -122.71875 -51.703125 -89.140625 -85.28125 -47.71875 -85.28125 Z M -47.71875 -85.28125 " clip-rule="nonzero"/></clipPath><clipPath id="5e9b6aa819"><path d="M 257 368 L 302 368 L 302 375 L 257 375 Z M 257 368 " clip-rule="nonzero"/></clipPath><clipPath id="34c9520829"><path d="M -123.617188 -11.183594 L -123.617188 457.210938 C -123.617188 498.632812 -90.039062 532.210938 -48.617188 532.210938 L 419.777344 532.210938 C 461.199219 532.210938 494.777344 498.632812 494.777344 457.210938 L 494.777344 -11.183594 C 494.777344 -52.605469 461.199219 -86.183594 419.777344 -86.183594 L -48.617188 -86.183594 C -90.039062 -86.183594 -123.617188 -52.605469 -123.617188 -11.183594 Z M -123.617188 -11.183594 " clip-rule="nonzero"/></clipPath><clipPath id="497687e9f4"><path d="M -47.71875 -85.28125 L 418.878906 -85.28125 C 460.300781 -85.28125 493.878906 -51.703125 493.878906 -10.28125 L 493.878906 456.3125 C 493.878906 497.734375 460.300781 531.3125 418.878906 531.3125 L -47.71875 531.3125 C -89.140625 531.3125 -122.71875 497.734375 -122.71875 456.3125 L -122.71875 -10.28125 C -122.71875 -51.703125 -89.140625 -85.28125 -47.71875 -85.28125 Z M -47.71875 -85.28125 " clip-rule="nonzero"/></clipPath><clipPath id="1eaa14921a"><path d="M 304 368 L 341 368 L 341 375 L 304 375 Z M 304 368 " clip-rule="nonzero"/></clipPath><clipPath id="f7d14d2b90"><path d="M -123.617188 -11.183594 L -123.617188 457.210938 C -123.617188 498.632812 -90.039062 532.210938 -48.617188 532.210938 L 419.777344 532.210938 C 461.199219 532.210938 494.777344 498.632812 494.777344 457.210938 L 494.777344 -11.183594 C 494.777344 -52.605469 461.199219 -86.183594 419.777344 -86.183594 L -48.617188 -86.183594 C -90.039062 -86.183594 -123.617188 -52.605469 -123.617188 -11.183594 Z M -123.617188 -11.183594 " clip-rule="nonzero"/></clipPath><clipPath id="37564806e6"><path d="M -47.71875 -85.28125 L 418.878906 -85.28125 C 460.300781 -85.28125 493.878906 -51.703125 493.878906 -10.28125 L 493.878906 456.3125 C 493.878906 497.734375 460.300781 531.3125 418.878906 531.3125 L -47.71875 531.3125 C -89.140625 531.3125 -122.71875 497.734375 -122.71875 456.3125 L -122.71875 -10.28125 C -122.71875 -51.703125 -89.140625 -85.28125 -47.71875 -85.28125 Z M -47.71875 -85.28125 " clip-rule="nonzero"/></clipPath><clipPath id="93fc69c886"><path d="M 105 76 L 359 76 L 359 357 L 105 357 Z M 105 76 " clip-rule="nonzero"/></clipPath><clipPath id="a0a9acc371"><path d="M -123.617188 -11.183594 L -123.617188 457.210938 C -123.617188 498.632812 -90.039062 532.210938 -48.617188 532.210938 L 419.777344 532.210938 C 461.199219 532.210938 494.777344 498.632812 494.777344 457.210938 L 494.777344 -11.183594 C 494.777344 -52.605469 461.199219 -86.183594 419.777344 -86.183594 L -48.617188 -86.183594 C -90.039062 -86.183594 -123.617188 -52.605469 -123.617188 -11.183594 Z M -123.617188 -11.183594 " clip-rule="nonzero"/></clipPath><clipPath id="18586ac1bc"><path d="M -47.71875 -85.28125 L 418.878906 -85.28125 C 460.300781 -85.28125 493.878906 -51.703125 493.878906 -10.28125 L 493.878906 456.3125 C 493.878906 497.734375 460.300781 531.3125 418.878906 531.3125 L -47.71875 531.3125 C -89.140625 531.3125 -122.71875 497.734375 -122.71875 456.3125 L -122.71875 -10.28125 C -122.71875 -51.703125 -89.140625 -85.28125 -47.71875 -85.28125 Z M -47.71875 -85.28125 " clip-rule="nonzero"/></clipPath><clipPath id="16858914a1"><path d="M 184 260 L 229 260 L 229 361 L 184 361 Z M 184 260 " clip-rule="nonzero"/></clipPath><clipPath id="12103987bc"><path d="M -123.617188 -11.183594 L -123.617188 457.210938 C -123.617188 498.632812 -90.039062 532.210938 -48.617188 532.210938 L 419.777344 532.210938 C 461.199219 532.210938 494.777344 498.632812 494.777344 457.210938 L 494.777344 -11.183594 C 494.777344 -52.605469 461.199219 -86.183594 419.777344 -86.183594 L -48.617188 -86.183594 C -90.039062 -86.183594 -123.617188 -52.605469 -123.617188 -11.183594 Z M -123.617188 -11.183594 " clip-rule="nonzero"/></clipPath><clipPath id="7cc5f71baa"><path d="M -47.71875 -85.28125 L 418.878906 -85.28125 C 460.300781 -85.28125 493.878906 -51.703125 493.878906 -10.28125 L 493.878906 456.3125 C 493.878906 497.734375 460.300781 531.3125 418.878906 531.3125 L -47.71875 531.3125 C -89.140625 531.3125 -122.71875 497.734375 -122.71875 456.3125 L -122.71875 -10.28125 C -122.71875 -51.703125 -89.140625 -85.28125 -47.71875 -85.28125 Z M -47.71875 -85.28125 " clip-rule="nonzero"/></clipPath><clipPath id="27389be9f3"><path d="M 228.808594 357.332031 L 221.871094 360.023438 L 184.078125 262.71875 L 191.011719 260.027344 Z M 228.808594 357.332031 " clip-rule="nonzero"/></clipPath><clipPath id="aa3003cb20"><path d="M 228.808594 357.332031 L 221.871094 360.023438 L 184.078125 262.734375 L 191.011719 260.039062 Z M 228.808594 357.332031 " clip-rule="nonzero"/></clipPath><clipPath id="50935aefef"><path d="M 234 241 L 286 241 L 286 361 L 234 361 Z M 234 241 " clip-rule="nonzero"/></clipPath><clipPath id="89e2e293d3"><path d="M -123.617188 -11.183594 L -123.617188 457.210938 C -123.617188 498.632812 -90.039062 532.210938 -48.617188 532.210938 L 419.777344 532.210938 C 461.199219 532.210938 494.777344 498.632812 494.777344 457.210938 L 494.777344 -11.183594 C 494.777344 -52.605469 461.199219 -86.183594 419.777344 -86.183594 L -48.617188 -86.183594 C -90.039062 -86.183594 -123.617188 -52.605469 -123.617188 -11.183594 Z M -123.617188 -11.183594 " clip-rule="nonzero"/></clipPath><clipPath id="7757f8e252"><path d="M -47.71875 -85.28125 L 418.878906 -85.28125 C 460.300781 -85.28125 493.878906 -51.703125 493.878906 -10.28125 L 493.878906 456.3125 C 493.878906 497.734375 460.300781 531.3125 418.878906 531.3125 L -47.71875 531.3125 C -89.140625 531.3125 -122.71875 497.734375 -122.71875 456.3125 L -122.71875 -10.28125 C -122.71875 -51.703125 -89.140625 -85.28125 -47.71875 -85.28125 Z M -47.71875 -85.28125 " clip-rule="nonzero"/></clipPath><clipPath id="387f924704"><path d="M 239.796875 360.023438 L 234.046875 357.75 L 280.066406 241.546875 L 285.816406 243.820312 Z M 239.796875 360.023438 " clip-rule="nonzero"/></clipPath><clipPath id="989ba4bd2f"><path d="M 239.796875 360.023438 L 234.046875 357.75 L 280.058594 241.554688 L 285.816406 243.828125 Z M 239.796875 360.023438 " clip-rule="nonzero"/></clipPath><clipPath id="24f5f1fce7"><path d="M 71.15625 108.566406 L 130 108.566406 L 130 187 L 71.15625 187 Z M 71.15625 108.566406 " clip-rule="nonzero"/></clipPath><clipPath id="d2317b409d"><path d="M -123.617188 -11.183594 L -123.617188 457.210938 C -123.617188 498.632812 -90.039062 532.210938 -48.617188 532.210938 L 419.777344 532.210938 C 461.199219 532.210938 494.777344 498.632812 494.777344 457.210938 L 494.777344 -11.183594 C 494.777344 -52.605469 461.199219 -86.183594 419.777344 -86.183594 L -48.617188 -86.183594 C -90.039062 -86.183594 -123.617188 -52.605469 -123.617188 -11.183594 Z M -123.617188 -11.183594 " clip-rule="nonzero"/></clipPath><clipPath id="d0f1f03f37"><path d="M -47.71875 -85.28125 L 418.878906 -85.28125 C 460.300781 -85.28125 493.878906 -51.703125 493.878906 -10.28125 L 493.878906 456.3125 C 493.878906 497.734375 460.300781 531.3125 418.878906 531.3125 L -47.71875 531.3125 C -89.140625 531.3125 -122.71875 497.734375 -122.71875 456.3125 L -122.71875 -10.28125 C -122.71875 -51.703125 -89.140625 -85.28125 -47.71875 -85.28125 Z M -47.71875 -85.28125 " clip-rule="nonzero"/></clipPath><clipPath id="f7c7b70d74"><path d="M 61.726562 119.75 L 128.921875 108.949219 L 139.734375 176.144531 L 72.535156 186.949219 Z M 61.726562 119.75 " clip-rule="nonzero"/></clipPath><clipPath id="573d1cb69d"><path d="M 61.726562 119.75 L 128.921875 108.949219 L 139.734375 176.144531 L 72.535156 186.949219 Z M 61.726562 119.75 " clip-rule="nonzero"/></clipPath><clipPath id="dd491d6490"><path d="M 81.054688 120 L 123.953125 120 L 123.953125 186 L 81.054688 186 Z M 81.054688 120 " clip-rule="nonzero"/></clipPath><clipPath id="9ba7b612c6"><path d="M -123.617188 -11.183594 L -123.617188 457.210938 C -123.617188 498.632812 -90.039062 532.210938 -48.617188 532.210938 L 419.777344 532.210938 C 461.199219 532.210938 494.777344 498.632812 494.777344 457.210938 L 494.777344 -11.183594 C 494.777344 -52.605469 461.199219 -86.183594 419.777344 -86.183594 L -48.617188 -86.183594 C -90.039062 -86.183594 -123.617188 -52.605469 -123.617188 -11.183594 Z M -123.617188 -11.183594 " clip-rule="nonzero"/></clipPath><clipPath id="1c61f81c74"><path d="M -47.71875 -85.28125 L 418.878906 -85.28125 C 460.300781 -85.28125 493.878906 -51.703125 493.878906 -10.28125 L 493.878906 456.3125 C 493.878906 497.734375 460.300781 531.3125 418.878906 531.3125 L -47.71875 531.3125 C -89.140625 531.3125 -122.71875 497.734375 -122.71875 456.3125 L -122.71875 -10.28125 C -122.71875 -51.703125 -89.140625 -85.28125 -47.71875 -85.28125 Z M -47.71875 -85.28125 " clip-rule="nonzero"/></clipPath><clipPath id="e97eb8d2e9"><path d="M 70.207031 132.492188 L 123.214844 120.039062 L 135.664062 173.046875 L 82.660156 185.5 Z M 70.207031 132.492188 " clip-rule="nonzero"/></clipPath><clipPath id="49524b71d6"><path d="M 70.207031 132.492188 L 123.214844 120.039062 L 135.664062 173.046875 L 82.660156 185.5 Z M 70.207031 132.492188 " clip-rule="nonzero"/></clipPath><clipPath id="bc107045cf"><path d="M 296.378906 149 L 298.855469 149 L 298.855469 318 L 296.378906 318 Z M 296.378906 149 " clip-rule="nonzero"/></clipPath><clipPath id="8e1d320daa"><path d="M -123.617188 -11.183594 L -123.617188 457.210938 C -123.617188 498.632812 -90.039062 532.210938 -48.617188 532.210938 L 419.777344 532.210938 C 461.199219 532.210938 494.777344 498.632812 494.777344 457.210938 L 494.777344 -11.183594 C 494.777344 -52.605469 461.199219 -86.183594 419.777344 -86.183594 L -48.617188 -86.183594 C -90.039062 -86.183594 -123.617188 -52.605469 -123.617188 -11.183594 Z M -123.617188 -11.183594 " clip-rule="nonzero"/></clipPath><clipPath id="e5dfcb705c"><path d="M -47.71875 -85.28125 L 418.878906 -85.28125 C 460.300781 -85.28125 493.878906 -51.703125 493.878906 -10.28125 L 493.878906 456.3125 C 493.878906 497.734375 460.300781 531.3125 418.878906 531.3125 L -47.71875 531.3125 C -89.140625 531.3125 -122.71875 497.734375 -122.71875 456.3125 L -122.71875 -10.28125 C -122.71875 -51.703125 -89.140625 -85.28125 -47.71875 -85.28125 Z M -47.71875 -85.28125 " clip-rule="nonzero"/></clipPath><clipPath id="9e25479e19"><path d="M 171 108.566406 L 194 108.566406 L 194 164 L 171 164 Z M 171 108.566406 " clip-rule="nonzero"/></clipPath><clipPath id="dc7515d9eb"><path d="M -123.617188 -11.183594 L -123.617188 457.210938 C -123.617188 498.632812 -90.039062 532.210938 -48.617188 532.210938 L 419.777344 532.210938 C 461.199219 532.210938 494.777344 498.632812 494.777344 457.210938 L 494.777344 -11.183594 C 494.777344 -52.605469 461.199219 -86.183594 419.777344 -86.183594 L -48.617188 -86.183594 C -90.039062 -86.183594 -123.617188 -52.605469 -123.617188 -11.183594 Z M -123.617188 -11.183594 " clip-rule="nonzero"/></clipPath><clipPath id="3d6d8d4d00"><path d="M -47.71875 -85.28125 L 418.878906 -85.28125 C 460.300781 -85.28125 493.878906 -51.703125 493.878906 -10.28125 L 493.878906 456.3125 C 493.878906 497.734375 460.300781 531.3125 418.878906 531.3125 L -47.71875 531.3125 C -89.140625 531.3125 -122.71875 497.734375 -122.71875 456.3125 L -122.71875 -10.28125 C -122.71875 -51.703125 -89.140625 -85.28125 -47.71875 -85.28125 Z M -47.71875 -85.28125 " clip-rule="nonzero"/></clipPath><clipPath id="a60c9e4ede"><path d="M 193.875 162.925781 L 191.554688 163.789062 L 171.347656 109.25 L 173.667969 108.386719 Z M 193.875 162.925781 " clip-rule="nonzero"/></clipPath><clipPath id="7819843f4c"><path d="M 193.875 162.925781 L 191.554688 163.789062 L 171.347656 109.25 L 173.667969 108.386719 Z M 193.875 162.925781 " clip-rule="nonzero"/></clipPath><clipPath id="96cf466909"><path d="M 128 107 L 168 107 L 168 199 L 128 199 Z M 128 107 " clip-rule="nonzero"/></clipPath><clipPath id="b8e55c27af"><path d="M -123.617188 -11.183594 L -123.617188 457.210938 C -123.617188 498.632812 -90.039062 532.210938 -48.617188 532.210938 L 419.777344 532.210938 C 461.199219 532.210938 494.777344 498.632812 494.777344 457.210938 L 494.777344 -11.183594 C 494.777344 -52.605469 461.199219 -86.183594 419.777344 -86.183594 L -48.617188 -86.183594 C -90.039062 -86.183594 -123.617188 -52.605469 -123.617188 -11.183594 Z M -123.617188 -11.183594 " clip-rule="nonzero"/></clipPath><clipPath id="b3e4cc02be"><path d="M -47.71875 -85.28125 L 418.878906 -85.28125 C 460.300781 -85.28125 493.878906 -51.703125 493.878906 -10.28125 L 493.878906 456.3125 C 493.878906 497.734375 460.300781 531.3125 418.878906 531.3125 L -47.71875 531.3125 C -89.140625 531.3125 -122.71875 497.734375 -122.71875 456.3125 L -122.71875 -10.28125 C -122.71875 -51.703125 -89.140625 -85.28125 -47.71875 -85.28125 Z M -47.71875 -85.28125 " clip-rule="nonzero"/></clipPath><clipPath id="835e0b2823"><path d="M 167.273438 196.769531 L 163.824219 198.136719 L 128.246094 108.414062 L 131.695312 107.039062 Z M 167.273438 196.769531 " clip-rule="nonzero"/></clipPath><clipPath id="4e62dac202"><path d="M 167.273438 196.769531 L 163.824219 198.136719 L 128.246094 108.414062 L 131.695312 107.039062 Z M 167.273438 196.769531 " clip-rule="nonzero"/></clipPath><clipPath id="6f7feb298a"><path d="M 287.304688 185.105469 L 289.558594 185.105469 L 289.558594 230.894531 L 287.304688 230.894531 Z M 287.304688 185.105469 " clip-rule="nonzero"/></clipPath><clipPath id="326fcfaae2"><path d="M -123.617188 -11.183594 L -123.617188 457.210938 C -123.617188 498.632812 -90.039062 532.210938 -48.617188 532.210938 L 419.777344 532.210938 C 461.199219 532.210938 494.777344 498.632812 494.777344 457.210938 L 494.777344 -11.183594 C 494.777344 -52.605469 461.199219 -86.183594 419.777344 -86.183594 L -48.617188 -86.183594 C -90.039062 -86.183594 -123.617188 -52.605469 -123.617188 -11.183594 Z M -123.617188 -11.183594 " clip-rule="nonzero"/></clipPath><clipPath id="0b24481672"><path d="M -47.71875 -85.28125 L 418.878906 -85.28125 C 460.300781 -85.28125 493.878906 -51.703125 493.878906 -10.28125 L 493.878906 456.3125 C 493.878906 497.734375 460.300781 531.3125 418.878906 531.3125 L -47.71875 531.3125 C -89.140625 531.3125 -122.71875 497.734375 -122.71875 456.3125 L -122.71875 -10.28125 C -122.71875 -51.703125 -89.140625 -85.28125 -47.71875 -85.28125 Z M -47.71875 -85.28125 " clip-rule="nonzero"/></clipPath><clipPath id="9bfaf10a3e"><path d="M 190 160 L 209.753906 160 L 209.753906 204 L 190 204 Z M 190 160 " clip-rule="nonzero"/></clipPath><clipPath id="f4c7db1260"><path d="M -123.617188 -11.183594 L -123.617188 457.210938 C -123.617188 498.632812 -90.039062 532.210938 -48.617188 532.210938 L 419.777344 532.210938 C 461.199219 532.210938 494.777344 498.632812 494.777344 457.210938 L 494.777344 -11.183594 C 494.777344 -52.605469 461.199219 -86.183594 419.777344 -86.183594 L -48.617188 -86.183594 C -90.039062 -86.183594 -123.617188 -52.605469 -123.617188 -11.183594 Z M -123.617188 -11.183594 " clip-rule="nonzero"/></clipPath><clipPath id="fd3da69c0a"><path d="M -47.71875 -85.28125 L 418.878906 -85.28125 C 460.300781 -85.28125 493.878906 -51.703125 493.878906 -10.28125 L 493.878906 456.3125 C 493.878906 497.734375 460.300781 531.3125 418.878906 531.3125 L -47.71875 531.3125 C -89.140625 531.3125 -122.71875 497.734375 -122.71875 456.3125 L -122.71875 -10.28125 C -122.71875 -51.703125 -89.140625 -85.28125 -47.71875 -85.28125 Z M -47.71875 -85.28125 " clip-rule="nonzero"/></clipPath><clipPath id="c379d954fe"><path d="M 209.195312 202.449219 L 206.898438 203.371094 L 189.902344 160.851562 L 192.199219 159.9375 Z M 209.195312 202.449219 " clip-rule="nonzero"/></clipPath><clipPath id="f62a6a288d"><path d="M 209.195312 202.449219 L 206.898438 203.371094 L 189.902344 160.851562 L 192.199219 159.9375 Z M 209.195312 202.449219 " clip-rule="nonzero"/></clipPath><clipPath id="61661f601e"><path d="M 164 195 L 188 195 L 188 251 L 164 251 Z M 164 195 " clip-rule="nonzero"/></clipPath><clipPath id="15c8ff9d7e"><path d="M -123.617188 -11.183594 L -123.617188 457.210938 C -123.617188 498.632812 -90.039062 532.210938 -48.617188 532.210938 L 419.777344 532.210938 C 461.199219 532.210938 494.777344 498.632812 494.777344 457.210938 L 494.777344 -11.183594 C 494.777344 -52.605469 461.199219 -86.183594 419.777344 -86.183594 L -48.617188 -86.183594 C -90.039062 -86.183594 -123.617188 -52.605469 -123.617188 -11.183594 Z M -123.617188 -11.183594 " clip-rule="nonzero"/></clipPath><clipPath id="cac04bc5b9"><path d="M -47.71875 -85.28125 L 418.878906 -85.28125 C 460.300781 -85.28125 493.878906 -51.703125 493.878906 -10.28125 L 493.878906 456.3125 C 493.878906 497.734375 460.300781 531.3125 418.878906 531.3125 L -47.71875 531.3125 C -89.140625 531.3125 -122.71875 497.734375 -122.71875 456.3125 L -122.71875 -10.28125 C -122.71875 -51.703125 -89.140625 -85.28125 -47.71875 -85.28125 Z M -47.71875 -85.28125 " clip-rule="nonzero"/></clipPath><clipPath id="527eac7f75"><path d="M 187.234375 249.660156 L 184.921875 250.53125 L 164.484375 196.074219 L 166.796875 195.210938 Z M 187.234375 249.660156 " clip-rule="nonzero"/></clipPath><clipPath id="6fe73cda32"><path d="M 187.234375 249.660156 L 184.921875 250.53125 L 164.484375 196.074219 L 166.796875 195.210938 Z M 187.234375 249.660156 " clip-rule="nonzero"/></clipPath><clipPath id="23e957f8fb"><path d="M 193.878906 108.566406 L 239.453125 108.566406 L 239.453125 110.566406 L 193.878906 110.566406 Z M 193.878906 108.566406 " clip-rule="nonzero"/></clipPath><clipPath id="70b3af405e"><path d="M -123.617188 -11.183594 L -123.617188 457.210938 C -123.617188 498.632812 -90.039062 532.210938 -48.617188 532.210938 L 419.777344 532.210938 C 461.199219 532.210938 494.777344 498.632812 494.777344 457.210938 L 494.777344 -11.183594 C 494.777344 -52.605469 461.199219 -86.183594 419.777344 -86.183594 L -48.617188 -86.183594 C -90.039062 -86.183594 -123.617188 -52.605469 -123.617188 -11.183594 Z M -123.617188 -11.183594 " clip-rule="nonzero"/></clipPath><clipPath id="9b9bda4121"><path d="M -47.71875 -85.28125 L 418.878906 -85.28125 C 460.300781 -85.28125 493.878906 -51.703125 493.878906 -10.28125 L 493.878906 456.3125 C 493.878906 497.734375 460.300781 531.3125 418.878906 531.3125 L -47.71875 531.3125 C -89.140625 531.3125 -122.71875 497.734375 -122.71875 456.3125 L -122.71875 -10.28125 C -122.71875 -51.703125 -89.140625 -85.28125 -47.71875 -85.28125 Z M -47.71875 -85.28125 " clip-rule="nonzero"/></clipPath><clipPath id="5de3300414"><path d="M 184.09375 118 L 229.554688 118 L 229.554688 120.039062 L 184.09375 120.039062 Z M 184.09375 118 " clip-rule="nonzero"/></clipPath><clipPath id="197cf82947"><path d="M -123.617188 -11.183594 L -123.617188 457.210938 C -123.617188 498.632812 -90.039062 532.210938 -48.617188 532.210938 L 419.777344 532.210938 C 461.199219 532.210938 494.777344 498.632812 494.777344 457.210938 L 494.777344 -11.183594 C 494.777344 -52.605469 461.199219 -86.183594 419.777344 -86.183594 L -48.617188 -86.183594 C -90.039062 -86.183594 -123.617188 -52.605469 -123.617188 -11.183594 Z M -123.617188 -11.183594 " clip-rule="nonzero"/></clipPath><clipPath id="d4182ab774"><path d="M -47.71875 -85.28125 L 418.878906 -85.28125 C 460.300781 -85.28125 493.878906 -51.703125 493.878906 -10.28125 L 493.878906 456.3125 C 493.878906 497.734375 460.300781 531.3125 418.878906 531.3125 L -47.71875 531.3125 C -89.140625 531.3125 -122.71875 497.734375 -122.71875 456.3125 L -122.71875 -10.28125 C -122.71875 -51.703125 -89.140625 -85.28125 -47.71875 -85.28125 Z M -47.71875 -85.28125 " clip-rule="nonzero"/></clipPath><clipPath id="8d8a30d78c"><path d="M -123.617188 -11.183594 L -123.617188 457.210938 C -123.617188 498.632812 -90.039062 532.210938 -48.617188 532.210938 L 419.777344 532.210938 C 461.199219 532.210938 494.777344 498.632812 494.777344 457.210938 L 494.777344 -11.183594 C 494.777344 -52.605469 461.199219 -86.183594 419.777344 -86.183594 L -48.617188 -86.183594 C -90.039062 -86.183594 -123.617188 -52.605469 -123.617188 -11.183594 Z M -123.617188 -11.183594 " clip-rule="nonzero"/></clipPath><clipPath id="a4ce11675d"><path d="M -123.617188 -11.183594 L -123.617188 457.203125 C -123.617188 498.625 -90.039062 532.203125 -48.617188 532.203125 L 419.769531 532.203125 C 461.191406 532.203125 494.769531 498.625 494.769531 457.203125 L 494.769531 -11.183594 C 494.769531 -52.605469 461.191406 -86.183594 419.769531 -86.183594 L -48.617188 -86.183594 C -90.039062 -86.183594 -123.617188 -52.605469 -123.617188 -11.183594 Z M -123.617188 -11.183594 " clip-rule="nonzero"/></clipPath></defs><rect x="-37.5" width="450" fill="#ffffff" y="-37.499999" height="449.999989" fill-opacity="1"/><rect x="-37.5" width="450" fill="#ffffff" y="-37.499999" height="449.999989" fill-opacity="1"/><g clip-path="url(#d8b547a346)"><rect x="-37.5" width="450" fill="#ffffff" y="-37.499999" height="449.999989" fill-opacity="1"/><path stroke-linecap="butt" transform="matrix(0.75, 0, 0, 0.75, 0.0000045, -0.000000000000021316)" fill="none" stroke-linejoin="miter" d="M 19.999997 0.000000000000028422 L 480.000056 0.000000000000028422 C 485.30214 0.000000000000028422 490.390683 2.109375 494.140683 5.859376 C 497.890684 9.609376 500.000059 14.697919 500.000059 20.000003 L 500.000059 480.000062 C 500.000059 485.302146 497.890684 490.390689 494.140683 494.140689 C 490.390683 497.89069 485.30214 500.000065 480.000056 500.000065 L 19.999997 500.000065 C 14.697913 500.000065 9.60937 497.89069 5.85937 494.140689 C 2.109369 490.390689 -0.000006 485.302146 -0.000006 480.000062 L -0.000006 20.000003 C -0.000006 14.697919 2.109369 9.609376 5.85937 5.859376 C 9.60937 2.109375 14.697913 0.000000000000028422 19.999997 0.000000000000028422 Z M 19.999997 0.000000000000028422 " stroke="#000000" stroke-width="32" stroke-opacity="1" stroke-miterlimit="4"/></g><g clip-path="url(#8d871c9be1)"><g clip-path="url(#5880444fcd)"><g clip-path="url(#373f36b6f6)"><g clip-path="url(#3a73bbe880)"><path fill="#ffffff" d="M 74.023438 110.578125 L 296.992188 110.578125 L 296.992188 347.480469 L 74.023438 347.480469 Z M 74.023438 110.578125 " fill-opacity="1" fill-rule="nonzero"/></g></g></g></g><g clip-path="url(#c59cb94697)"><g clip-path="url(#52fb52b36d)"><g clip-path="url(#c1a424d10e)"><g clip-path="url(#4ba5ab1f26)"><path stroke-linecap="butt" transform="matrix(1.2375, 0, 0, 1.2375, 74.020488, 110.575327)" fill="none" stroke-linejoin="miter" d="M 49.996079 0.0022609 L 130.172859 0.0022609 C 143.433594 0.0022609 156.148242 5.267413 165.529557 14.642415 C 174.904559 24.023729 180.169711 36.735221 180.169711 49.995956 L 180.169711 141.454304 C 180.169711 154.715039 174.904559 167.436 165.529557 176.811002 C 156.148242 186.186003 143.433594 191.454312 130.172859 191.454312 L 49.996079 191.454312 C 36.735344 191.454312 24.023852 186.186003 14.642538 176.811002 C 5.267536 167.436 0.00238373 154.715039 0.00238373 141.454304 L 0.00238373 49.995956 C 0.00238373 36.735221 5.267536 24.023729 14.642538 14.642415 C 24.023852 5.267413 36.735344 0.0022609 49.996079 0.0022609 Z M 49.996079 0.0022609 " stroke="#000000" stroke-width="12" stroke-opacity="1" stroke-miterlimit="4"/></g></g></g></g><g clip-path="url(#0067d53746)"><g clip-path="url(#91e3b61864)"><g clip-path="url(#3c2b24dca9)"><path fill="#000000" d="M 268.753906 38.332031 L 268.753906 46.167969 C 263.765625 47.21875 258.457031 50.234375 252.824219 55.21875 C 247.203125 60.207031 242.164062 68.589844 237.714844 80.378906 L 145.339844 318.546875 C 144.824219 318.546875 144.296875 318.546875 143.769531 318.546875 C 143.253906 318.546875 142.722656 318.546875 142.195312 318.546875 C 141.679688 318.546875 141.152344 318.546875 140.621094 318.546875 C 140.105469 318.546875 139.578125 318.546875 139.050781 318.546875 L 43.144531 71.332031 C 39.226562 61.378906 34.773438 54.773438 29.789062 51.503906 C 24.800781 48.222656 20.222656 46.445312 16.046875 46.167969 L 16.046875 38.332031 C 21.269531 38.589844 27.753906 38.847656 35.488281 39.105469 C 43.222656 39.363281 50.757812 39.492188 58.097656 39.492188 C 68.304688 39.492188 77.859375 39.363281 86.765625 39.105469 C 95.6875 38.847656 102.890625 38.589844 108.394531 38.332031 L 108.394531 46.167969 C 99.488281 46.445312 92.746094 47.503906 88.15625 49.339844 C 83.570312 51.164062 81.074219 54.367188 80.679688 58.957031 C 80.28125 63.542969 81.796875 70.292969 85.21875 79.195312 L 158.308594 272.964844 L 152.019531 279.644531 L 220.414062 101.984375 C 225.914062 87.84375 228.535156 76.769531 228.277344 68.777344 C 228.019531 60.785156 225.003906 55.089844 219.230469 51.683594 C 213.46875 48.28125 205.089844 46.445312 194.09375 46.167969 L 194.09375 38.332031 C 201.6875 38.589844 209.414062 38.847656 217.269531 39.105469 C 225.121094 39.363281 232.460938 39.492188 239.289062 39.492188 C 246.09375 39.492188 251.722656 39.363281 256.175781 39.105469 C 260.621094 38.847656 264.816406 38.589844 268.753906 38.332031 Z M 268.753906 38.332031 " fill-opacity="1" fill-rule="nonzero"/></g></g></g><g clip-path="url(#83ec7cbef9)"><g clip-path="url(#b6ccedfd28)"><g clip-path="url(#aa1fae56ec)"><path fill="#000000" d="M 64.140625 374.136719 L 60.554688 374.78125 L 68.859375 402.910156 L 69.449219 405.488281 L 69.632812 405.488281 L 70.199219 402.988281 L 78.527344 374.78125 L 74.992188 374.136719 L 74.992188 368.464844 L 92.136719 368.464844 L 92.136719 374.136719 L 88.191406 374.652344 L 74.375 415.386719 L 64.707031 415.386719 L 50.863281 374.652344 L 46.996094 374.136719 L 46.996094 368.464844 L 64.140625 368.464844 Z M 64.140625 374.136719 " fill-opacity="1" fill-rule="nonzero"/></g></g></g><g clip-path="url(#b51d7a25ce)"><g clip-path="url(#ff6292d406)"><g clip-path="url(#e23f06e69a)"><path fill="#000000" d="M 94.96875 374.136719 L 94.96875 368.464844 L 114.40625 368.464844 L 114.40625 374.136719 L 109.378906 375.09375 L 109.378906 408.789062 L 114.40625 409.742188 L 114.40625 415.386719 L 94.96875 415.386719 L 94.96875 409.742188 L 99.996094 408.789062 L 99.996094 375.09375 Z M 94.96875 374.136719 " fill-opacity="1" fill-rule="nonzero"/></g></g></g><g clip-path="url(#a151d97be2)"><g clip-path="url(#1291e9bcf4)"><g clip-path="url(#66dd8203e5)"><path fill="#000000" d="M 139.058594 368.464844 C 144.382812 368.464844 148.5625 369.691406 151.589844 372.128906 C 154.613281 374.570312 156.128906 377.941406 156.128906 382.234375 C 156.128906 384.59375 155.488281 386.640625 154.21875 388.394531 C 152.960938 390.136719 151.105469 391.535156 148.652344 392.597656 C 151.414062 393.421875 153.40625 394.789062 154.632812 396.695312 C 155.851562 398.589844 156.460938 400.945312 156.460938 403.761719 L 156.460938 406.132812 C 156.460938 407.164062 156.65625 407.964844 157.054688 408.53125 C 157.46875 409.097656 158.144531 409.445312 159.09375 409.5625 L 160.253906 409.714844 L 160.253906 415.386719 L 155.378906 415.386719 C 152.316406 415.386719 150.160156 414.5625 148.910156 412.914062 C 147.671875 411.25 147.050781 409.109375 147.050781 406.492188 L 147.050781 403.8125 C 147.050781 401.542969 146.441406 399.757812 145.222656 398.449219 C 143.996094 397.148438 142.289062 396.464844 140.089844 396.414062 L 132.382812 396.414062 L 132.382812 408.789062 L 137.410156 409.742188 L 137.410156 415.386719 L 117.972656 415.386719 L 117.972656 409.742188 L 122.972656 408.789062 L 122.972656 375.09375 L 117.972656 374.136719 L 117.972656 368.464844 Z M 132.382812 389.144531 L 138.878906 389.144531 C 141.507812 389.144531 143.476562 388.589844 144.785156 387.46875 C 146.085938 386.351562 146.742188 384.746094 146.742188 382.644531 C 146.742188 380.53125 146.085938 378.847656 144.785156 377.59375 C 143.496094 376.34375 141.585938 375.710938 139.058594 375.710938 L 132.382812 375.710938 Z M 132.382812 389.144531 " fill-opacity="1" fill-rule="nonzero"/></g></g></g><g clip-path="url(#2a04ebc86d)"><g clip-path="url(#dfe45af8b9)"><g clip-path="url(#8cb07c4fb6)"><path fill="#000000" d="M 204.667969 368.464844 L 204.667969 380.96875 L 197.449219 380.96875 L 197.0625 375.710938 L 188.425781 375.710938 L 188.425781 408.789062 L 193.453125 409.742188 L 193.453125 415.386719 L 173.988281 415.386719 L 173.988281 409.742188 L 179.015625 408.789062 L 179.015625 375.710938 L 170.40625 375.710938 L 170.019531 380.96875 L 162.824219 380.96875 L 162.824219 368.464844 Z M 204.667969 368.464844 " fill-opacity="1" fill-rule="nonzero"/></g></g></g><g clip-path="url(#c624d8f9d9)"><g clip-path="url(#26dad9e2cb)"><g clip-path="url(#4142bf5030)"><path fill="#000000" d="M 226.609375 368.464844 L 226.609375 374.136719 L 221.582031 375.09375 L 221.582031 399.585938 C 221.582031 402.679688 222.410156 405 224.058594 406.546875 C 225.722656 408.078125 228.007812 408.839844 230.917969 408.839844 C 233.855469 408.839844 236.15625 408.085938 237.824219 406.570312 C 239.507812 405.042969 240.351562 402.714844 240.351562 399.585938 L 240.351562 375.09375 L 235.375 374.136719 L 235.375 368.464844 L 254.789062 368.464844 L 254.789062 374.136719 L 249.761719 375.09375 L 249.761719 399.585938 C 249.761719 404.863281 248.023438 408.929688 244.554688 411.777344 C 241.101562 414.632812 236.550781 416.058594 230.917969 416.058594 C 225.308594 416.058594 220.785156 414.632812 217.328125 411.777344 C 213.886719 408.929688 212.171875 404.863281 212.171875 399.585938 L 212.171875 375.09375 L 207.171875 374.136719 L 207.171875 368.464844 Z M 226.609375 368.464844 " fill-opacity="1" fill-rule="nonzero"/></g></g></g><g clip-path="url(#5e9b6aa819)"><g clip-path="url(#34c9520829)"><g clip-path="url(#497687e9f4)"><path fill="#000000" d="M 257.070312 409.742188 L 260.421875 409.253906 L 274.707031 368.464844 L 284.347656 368.464844 L 298.527344 409.253906 L 301.878906 409.742188 L 301.878906 415.386719 L 285.894531 415.386719 L 285.894531 409.742188 L 289.144531 409.175781 L 287.082031 402.730469 L 271.871094 402.730469 L 269.808594 409.175781 L 273.054688 409.742188 L 273.054688 415.386719 L 257.070312 415.386719 Z M 274.085938 395.792969 L 284.863281 395.792969 L 279.578125 379.269531 L 279.371094 379.269531 Z M 274.085938 395.792969 " fill-opacity="1" fill-rule="nonzero"/></g></g></g><g clip-path="url(#1eaa14921a)"><g clip-path="url(#f7d14d2b90)"><g clip-path="url(#37564806e6)"><path fill="#000000" d="M 304.960938 415.386719 L 304.960938 409.742188 L 309.964844 408.789062 L 309.964844 375.09375 L 304.960938 374.136719 L 304.960938 368.464844 L 324.402344 368.464844 L 324.402344 374.136719 L 319.375 375.09375 L 319.375 408.167969 L 332.625 408.167969 L 333.0625 402.265625 L 340.257812 402.265625 L 340.257812 415.386719 Z M 304.960938 415.386719 " fill-opacity="1" fill-rule="nonzero"/></g></g></g><g clip-path="url(#93fc69c886)"><g clip-path="url(#a0a9acc371)"><g clip-path="url(#18586ac1bc)"><path fill="#000000" d="M 358.527344 76.125 L 358.527344 83.960938 C 353.535156 85.011719 348.226562 88.027344 342.59375 93.011719 C 336.972656 98 331.933594 106.382812 327.484375 118.171875 L 235.109375 356.339844 C 234.59375 356.339844 234.066406 356.339844 233.539062 356.339844 C 233.023438 356.339844 232.492188 356.339844 231.964844 356.339844 C 231.449219 356.339844 230.921875 356.339844 230.394531 356.339844 C 229.878906 356.339844 229.347656 356.339844 228.820312 356.339844 L 132.914062 109.125 C 128.996094 99.171875 124.542969 92.566406 119.558594 89.296875 C 114.570312 86.015625 109.996094 84.238281 105.816406 83.960938 L 105.816406 76.125 C 111.039062 76.382812 117.523438 76.640625 125.257812 76.898438 C 132.992188 77.15625 140.527344 77.285156 147.867188 77.285156 C 158.078125 77.285156 167.628906 77.15625 176.535156 76.898438 C 185.457031 76.640625 192.660156 76.382812 198.167969 76.125 L 198.167969 83.960938 C 189.257812 84.238281 182.515625 85.296875 177.929688 87.132812 C 173.339844 88.957031 170.84375 92.160156 170.453125 96.75 C 170.050781 101.339844 171.566406 108.085938 174.988281 116.988281 L 248.078125 310.757812 L 241.789062 317.4375 L 310.1875 139.777344 C 315.683594 125.636719 318.308594 114.5625 318.050781 106.570312 C 317.792969 98.578125 314.773438 92.882812 309 89.480469 C 303.238281 86.074219 294.859375 84.238281 283.863281 83.960938 L 283.863281 76.125 C 291.457031 76.382812 299.183594 76.640625 307.039062 76.898438 C 314.890625 77.15625 322.230469 77.285156 329.058594 77.285156 C 335.863281 77.285156 341.492188 77.15625 345.945312 76.898438 C 350.390625 76.640625 354.585938 76.382812 358.527344 76.125 Z M 358.527344 76.125 " fill-opacity="1" fill-rule="nonzero"/></g></g></g><g clip-path="url(#16858914a1)"><g clip-path="url(#12103987bc)"><g clip-path="url(#7cc5f71baa)"><g clip-path="url(#27389be9f3)"><g clip-path="url(#aa3003cb20)"><path fill="#ffffff" d="M 228.808594 357.332031 L 221.871094 360.023438 L 184.078125 262.71875 L 191.011719 260.027344 Z M 228.808594 357.332031 " fill-opacity="1" fill-rule="nonzero"/></g></g></g></g></g><g clip-path="url(#50935aefef)"><g clip-path="url(#89e2e293d3)"><g clip-path="url(#7757f8e252)"><g clip-path="url(#387f924704)"><g clip-path="url(#989ba4bd2f)"><path fill="#ffffff" d="M 239.796875 360.023438 L 234.046875 357.75 L 280.066406 241.546875 L 285.816406 243.820312 Z M 239.796875 360.023438 " fill-opacity="1" fill-rule="nonzero"/></g></g></g></g></g><g clip-path="url(#24f5f1fce7)"><g clip-path="url(#d2317b409d)"><g clip-path="url(#d0f1f03f37)"><g clip-path="url(#f7c7b70d74)"><g clip-path="url(#573d1cb69d)"><path fill="#ffffff" d="M 129.089844 110.199219 C 92.746094 116.042969 67.925781 150.363281 73.769531 186.714844 L 72.539062 186.917969 C 72.1875 184.710938 71.933594 182.5 71.800781 180.277344 C 71.65625 178.054688 71.632812 175.832031 71.714844 173.601562 C 71.792969 171.375 71.984375 169.160156 72.28125 166.949219 C 72.578125 164.746094 72.984375 162.554688 73.5 160.386719 C 74.015625 158.222656 74.636719 156.082031 75.355469 153.972656 C 76.085938 151.867188 76.910156 149.804688 77.839844 147.773438 C 78.765625 145.75 79.792969 143.773438 80.914062 141.851562 C 82.035156 139.921875 83.246094 138.0625 84.554688 136.257812 C 85.855469 134.445312 87.25 132.710938 88.722656 131.042969 C 90.199219 129.371094 91.753906 127.78125 93.390625 126.265625 C 95.019531 124.75 96.722656 123.3125 98.5 121.96875 C 100.273438 120.621094 102.109375 119.363281 104.007812 118.195312 C 105.902344 117.023438 107.855469 115.953125 109.859375 114.980469 C 111.855469 114 113.90625 113.125 115.996094 112.351562 C 118.082031 111.578125 120.203125 110.90625 122.363281 110.339844 C 124.515625 109.773438 126.695312 109.316406 128.890625 108.960938 " fill-opacity="1" fill-rule="nonzero"/></g></g></g></g></g><g clip-path="url(#dd491d6490)"><g clip-path="url(#9ba7b612c6)"><g clip-path="url(#1c61f81c74)"><g clip-path="url(#e97eb8d2e9)"><g clip-path="url(#49524b71d6)"><path fill="#ffffff" d="M 123.386719 121.03125 C 94.730469 127.769531 76.898438 156.558594 83.625 185.214844 L 82.652344 185.441406 C 82.246094 183.707031 81.925781 181.960938 81.6875 180.195312 C 81.449219 178.429688 81.300781 176.65625 81.234375 174.871094 C 81.175781 173.089844 81.203125 171.3125 81.3125 169.535156 C 81.429688 167.753906 81.628906 165.988281 81.910156 164.230469 C 82.203125 162.46875 82.570312 160.730469 83.027344 159.007812 C 83.484375 157.289062 84.027344 155.59375 84.652344 153.921875 C 85.277344 152.253906 85.980469 150.621094 86.765625 149.023438 C 87.550781 147.425781 88.414062 145.867188 89.347656 144.351562 C 90.289062 142.835938 91.300781 141.375 92.386719 139.957031 C 93.460938 138.542969 94.617188 137.183594 95.828125 135.882812 C 97.046875 134.582031 98.320312 133.34375 99.660156 132.164062 C 100.996094 130.992188 102.386719 129.882812 103.839844 128.835938 C 105.28125 127.800781 106.777344 126.832031 108.316406 125.945312 C 109.863281 125.046875 111.445312 124.234375 113.066406 123.496094 C 114.6875 122.761719 116.34375 122.101562 118.03125 121.527344 C 119.714844 120.957031 121.429688 120.464844 123.160156 120.058594 " fill-opacity="1" fill-rule="nonzero"/></g></g></g></g></g><g clip-path="url(#bc107045cf)"><g clip-path="url(#8e1d320daa)"><g clip-path="url(#e5dfcb705c)"><path fill="#ffffff" d="M 297.757812 149.734375 C 298.527344 149.734375 299.144531 150.351562 299.144531 151.113281 L 299.144531 316.046875 C 299.144531 316.808594 298.527344 317.425781 297.757812 317.425781 C 297 317.425781 296.378906 316.808594 296.378906 316.046875 L 296.378906 151.113281 C 296.378906 150.351562 297 149.734375 297.757812 149.734375 Z M 297.757812 149.734375 " fill-opacity="1" fill-rule="nonzero"/></g></g></g><g clip-path="url(#9e25479e19)"><g clip-path="url(#dc7515d9eb)"><g clip-path="url(#3d6d8d4d00)"><g clip-path="url(#a60c9e4ede)"><g clip-path="url(#7819843f4c)"><path fill="#ffffff" d="M 193.867188 162.933594 L 173.875 108.953125 L 171.527344 109.824219 L 191.519531 163.804688 Z M 193.867188 162.933594 " fill-opacity="1" fill-rule="nonzero"/></g></g></g></g></g><g clip-path="url(#96cf466909)"><g clip-path="url(#b8e55c27af)"><g clip-path="url(#b3e4cc02be)"><g clip-path="url(#835e0b2823)"><g clip-path="url(#4e62dac202)"><path fill="#ffffff" d="M 167.261719 196.777344 L 131.734375 107.175781 L 127.839844 108.714844 L 163.367188 198.316406 Z M 167.261719 196.777344 " fill-opacity="1" fill-rule="nonzero"/></g></g></g></g></g><g clip-path="url(#6f7feb298a)"><g clip-path="url(#326fcfaae2)"><g clip-path="url(#0b24481672)"><path fill="#ffffff" d="M 289.558594 230.894531 L 289.558594 185.648438 L 287.59375 185.648438 L 287.59375 230.894531 Z M 289.558594 230.894531 " fill-opacity="1" fill-rule="nonzero"/></g></g></g><g clip-path="url(#9bfaf10a3e)"><g clip-path="url(#f4c7db1260)"><g clip-path="url(#fd3da69c0a)"><g clip-path="url(#c379d954fe)"><g clip-path="url(#f62a6a288d)"><path fill="#ffffff" d="M 209.195312 202.449219 L 192.398438 160.4375 L 190.574219 161.167969 L 207.371094 203.183594 Z M 209.195312 202.449219 " fill-opacity="1" fill-rule="nonzero"/></g></g></g></g></g><g clip-path="url(#61661f601e)"><g clip-path="url(#15c8ff9d7e)"><g clip-path="url(#cac04bc5b9)"><g clip-path="url(#527eac7f75)"><g clip-path="url(#6fe73cda32)"><path fill="#ffffff" d="M 187.226562 249.660156 L 167.003906 195.773438 L 164.664062 196.648438 L 184.886719 250.542969 Z M 187.226562 249.660156 " fill-opacity="1" fill-rule="nonzero"/></g></g></g></g></g><g clip-path="url(#23e957f8fb)"><g clip-path="url(#70b3af405e)"><g clip-path="url(#9b9bda4121)"><path fill="#ffffff" d="M 193.878906 110.566406 L 239.125 110.566406 L 239.125 108.59375 L 193.878906 108.59375 Z M 193.878906 110.566406 " fill-opacity="1" fill-rule="nonzero"/></g></g></g><g clip-path="url(#5de3300414)"><g clip-path="url(#197cf82947)"><g clip-path="url(#d4182ab774)"><path fill="#ffffff" d="M 184.09375 120.039062 L 229.339844 120.039062 L 229.339844 118.074219 L 184.09375 118.074219 Z M 184.09375 120.039062 " fill-opacity="1" fill-rule="nonzero"/></g></g></g><g clip-path="url(#8d8a30d78c)"><g clip-path="url(#a4ce11675d)"><path stroke-linecap="butt" transform="matrix(0.75, 0, 0, 0.75, -123.617757, -86.182905)" fill="none" stroke-linejoin="miter" d="M 0.00075931 99.999094 L 0.00075931 724.5148 C 0.00075931 779.743974 44.771598 824.514813 100.000772 824.514813 L 724.516478 824.514813 C 779.745652 824.514813 824.516491 779.743974 824.516491 724.5148 L 824.516491 99.999094 C 824.516491 44.76992 779.745652 -0.000918679 724.516478 -0.000918679 L 100.000772 -0.000918679 C 44.771598 -0.000918679 0.00075931 44.76992 0.00075931 99.999094 Z M 0.00075931 99.999094 " stroke="#000000" stroke-width="128" stroke-opacity="1" stroke-miterlimit="4"/></g></g></svg>