<svg xmlns="http://www.w3.org/2000/svg" xmlns:xlink="http://www.w3.org/1999/xlink" width="500" zoomAndPan="magnify" viewBox="0 0 375 374.999991" height="500" preserveAspectRatio="xMidYMid meet" version="1.0"><defs><g/><clipPath id="bafec73aa0"><path d="M 119.738281 119.21875 L 254.871094 119.21875 L 254.871094 263 L 119.738281 263 Z M 119.738281 119.21875 " clip-rule="nonzero"/></clipPath><clipPath id="37fb0c9559"><path d="M 157.238281 119.21875 L 217.371094 119.21875 C 227.316406 119.21875 236.855469 123.167969 243.886719 130.199219 C 250.917969 137.234375 254.871094 146.769531 254.871094 156.71875 L 254.871094 225.3125 C 254.871094 235.257812 250.917969 244.796875 243.886719 251.828125 C 236.855469 258.859375 227.316406 262.8125 217.371094 262.8125 L 157.238281 262.8125 C 147.289062 262.8125 137.753906 258.859375 130.71875 251.828125 C 123.6875 244.796875 119.738281 235.257812 119.738281 225.3125 L 119.738281 156.71875 C 119.738281 146.769531 123.6875 137.234375 130.71875 130.199219 C 137.753906 123.167969 147.289062 119.21875 157.238281 119.21875 Z M 157.238281 119.21875 " clip-rule="nonzero"/></clipPath><clipPath id="cdbae2bd9f"><path d="M 119.738281 119.21875 L 254.738281 119.21875 L 254.738281 262.46875 L 119.738281 262.46875 Z M 119.738281 119.21875 " clip-rule="nonzero"/></clipPath><clipPath id="6c522132bc"><path d="M 157.234375 119.21875 L 217.367188 119.21875 C 227.3125 119.21875 236.847656 123.167969 243.882812 130.199219 C 250.914062 137.234375 254.863281 146.769531 254.863281 156.714844 L 254.863281 225.308594 C 254.863281 235.253906 250.914062 244.792969 243.882812 251.824219 C 236.847656 258.855469 227.3125 262.808594 217.367188 262.808594 L 157.234375 262.808594 C 147.289062 262.808594 137.753906 258.855469 130.71875 251.824219 C 123.6875 244.792969 119.738281 235.253906 119.738281 225.308594 L 119.738281 156.714844 C 119.738281 146.769531 123.6875 137.234375 130.71875 130.199219 C 137.753906 123.167969 147.289062 119.21875 157.234375 119.21875 Z M 157.234375 119.21875 " clip-rule="nonzero"/></clipPath><clipPath id="e55045b1be"><path d="M 186 209 L 214 209 L 214 271 L 186 271 Z M 186 209 " clip-rule="nonzero"/></clipPath><clipPath id="0f40f2f1fc"><path d="M 213.546875 268.765625 L 209.34375 270.398438 L 186.4375 211.425781 L 190.640625 209.792969 Z M 213.546875 268.765625 " clip-rule="nonzero"/></clipPath><clipPath id="fc2eeef2e6"><path d="M 213.546875 268.765625 L 209.34375 270.398438 L 186.4375 211.433594 L 190.640625 209.800781 Z M 213.546875 268.765625 " clip-rule="nonzero"/></clipPath><clipPath id="cd8fcd88bf"><path d="M 216 198 L 249 198 L 249 271 L 216 271 Z M 216 198 " clip-rule="nonzero"/></clipPath><clipPath id="7c2d3f7a10"><path d="M 220.207031 270.398438 L 216.722656 269.019531 L 244.613281 198.59375 L 248.097656 199.972656 Z M 220.207031 270.398438 " clip-rule="nonzero"/></clipPath><clipPath id="9fc7d6703a"><path d="M 220.207031 270.398438 L 216.722656 269.019531 L 244.609375 198.597656 L 248.097656 199.976562 Z M 220.207031 270.398438 " clip-rule="nonzero"/></clipPath><clipPath id="540e62f75f"><path d="M 118 118 L 154 118 L 154 166 L 118 166 Z M 118 118 " clip-rule="nonzero"/></clipPath><clipPath id="8876709bb7"><path d="M 112.285156 124.777344 L 153.011719 118.230469 L 159.5625 158.957031 L 118.835938 165.503906 Z M 112.285156 124.777344 " clip-rule="nonzero"/></clipPath><clipPath id="bda19a77c8"><path d="M 112.285156 124.777344 L 153.011719 118.230469 L 159.5625 158.957031 L 118.835938 165.503906 Z M 112.285156 124.777344 " clip-rule="nonzero"/></clipPath><clipPath id="2750352261"><path d="M 124 124 L 150 124 L 150 165 L 124 165 Z M 124 124 " clip-rule="nonzero"/></clipPath><clipPath id="36ff9c9fc7"><path d="M 117.425781 132.5 L 149.550781 124.953125 L 157.097656 157.078125 L 124.972656 164.625 Z M 117.425781 132.5 " clip-rule="nonzero"/></clipPath><clipPath id="28dbd385f4"><path d="M 117.425781 132.5 L 149.550781 124.953125 L 157.097656 157.078125 L 124.972656 164.625 Z M 117.425781 132.5 " clip-rule="nonzero"/></clipPath><clipPath id="e6f9f7c7b1"><path d="M 254.5 142.160156 L 256 142.160156 L 256 245 L 254.5 245 Z M 254.5 142.160156 " clip-rule="nonzero"/></clipPath><clipPath id="1b723ebef7"><path d="M 178 118 L 193 118 L 193 152 L 178 152 Z M 178 118 " clip-rule="nonzero"/></clipPath><clipPath id="268817f863"><path d="M 192.375 150.945312 L 190.96875 151.46875 L 178.722656 118.414062 L 180.128906 117.890625 Z M 192.375 150.945312 " clip-rule="nonzero"/></clipPath><clipPath id="8b3d9e21e7"><path d="M 192.375 150.945312 L 190.96875 151.46875 L 178.722656 118.414062 L 180.128906 117.890625 Z M 192.375 150.945312 " clip-rule="nonzero"/></clipPath><clipPath id="fed961ecb1"><path d="M 152 117 L 177 117 L 177 173 L 152 173 Z M 152 117 " clip-rule="nonzero"/></clipPath><clipPath id="31b9fc15b6"><path d="M 176.253906 171.457031 L 174.164062 172.285156 L 152.601562 117.90625 L 154.691406 117.074219 Z M 176.253906 171.457031 " clip-rule="nonzero"/></clipPath><clipPath id="7e5a88d354"><path d="M 176.253906 171.457031 L 174.164062 172.285156 L 152.601562 117.90625 L 154.691406 117.074219 Z M 176.253906 171.457031 " clip-rule="nonzero"/></clipPath><clipPath id="fbeda9f4e7"><path d="M 249 164.386719 L 250.367188 164.386719 L 250.367188 192.136719 L 249 192.136719 Z M 249 164.386719 " clip-rule="nonzero"/></clipPath><clipPath id="0e51280550"><path d="M 190 149 L 202 149 L 202 176 L 190 176 Z M 190 149 " clip-rule="nonzero"/></clipPath><clipPath id="3f17a55cb4"><path d="M 201.660156 174.898438 L 200.269531 175.457031 L 189.96875 149.6875 L 191.359375 149.132812 Z M 201.660156 174.898438 " clip-rule="nonzero"/></clipPath><clipPath id="01d0b4a17c"><path d="M 201.660156 174.898438 L 200.269531 175.457031 L 189.96875 149.6875 L 191.359375 149.132812 Z M 201.660156 174.898438 " clip-rule="nonzero"/></clipPath><clipPath id="bc1abd1ee9"><path d="M 174 170 L 189 170 L 189 205 L 174 205 Z M 174 170 " clip-rule="nonzero"/></clipPath><clipPath id="9ccdf70153"><path d="M 188.351562 203.511719 L 186.949219 204.039062 L 174.5625 171.035156 L 175.964844 170.511719 Z M 188.351562 203.511719 " clip-rule="nonzero"/></clipPath><clipPath id="c176e0215f"><path d="M 188.351562 203.511719 L 186.949219 204.039062 L 174.5625 171.035156 L 175.964844 170.511719 Z M 188.351562 203.511719 " clip-rule="nonzero"/></clipPath><clipPath id="052ef29420"><path d="M 192.378906 118 L 220 118 L 220 119.210938 L 192.378906 119.210938 Z M 192.378906 118 " clip-rule="nonzero"/></clipPath><clipPath id="3e582fec5a"><path d="M 186.449219 123.453125 L 214 123.453125 L 214 124.953125 L 186.449219 124.953125 Z M 186.449219 123.453125 " clip-rule="nonzero"/></clipPath></defs><g clip-path="url(#bafec73aa0)"><g clip-path="url(#37fb0c9559)"><path fill="#ffffff" d="M 119.738281 119.21875 L 254.871094 119.21875 L 254.871094 262.796875 L 119.738281 262.796875 Z M 119.738281 119.21875 " fill-opacity="1" fill-rule="nonzero"/></g></g><g clip-path="url(#cdbae2bd9f)"><g clip-path="url(#6c522132bc)"><path stroke-linecap="butt" transform="matrix(0.75, 0, 0, 0.75, 119.736801, 119.217047)" fill="none" stroke-linejoin="miter" d="M 49.996772 0.00227017 L 130.173866 0.00227017 C 143.434284 0.00227017 156.147828 5.267896 165.528037 14.642897 C 174.903038 24.023107 180.168664 36.73665 180.168664 49.997068 L 180.168664 141.455414 C 180.168664 154.715832 174.903038 167.434584 165.528037 176.809585 C 156.147828 186.184586 143.434284 191.45542 130.173866 191.45542 L 49.996772 191.45542 C 36.736354 191.45542 24.022811 186.184586 14.642601 176.809585 C 5.2676 167.434584 0.00197415 154.715832 0.00197415 141.455414 L 0.00197415 49.997068 C 0.00197415 36.73665 5.2676 24.023107 14.642601 14.642897 C 24.022811 5.267896 36.736354 0.00227017 49.996772 0.00227017 Z M 49.996772 0.00227017 " stroke="#000000" stroke-width="12" stroke-opacity="1" stroke-miterlimit="4"/></g></g><g fill="#000000" fill-opacity="1"><g transform="translate(86.023659, 244.073183)"><g><path d="M 151.734375 -168.640625 L 151.734375 -163.890625 C 148.710938 -163.253906 145.492188 -161.425781 142.078125 -158.40625 C 138.671875 -155.382812 135.617188 -150.300781 132.921875 -143.15625 L 76.9375 1.1875 C 76.625 1.1875 76.304688 1.1875 75.984375 1.1875 C 75.671875 1.1875 75.351562 1.1875 75.03125 1.1875 C 74.71875 1.1875 74.398438 1.1875 74.078125 1.1875 C 73.765625 1.1875 73.445312 1.1875 73.125 1.1875 L 15 -148.640625 C 12.625 -154.671875 9.925781 -158.675781 6.90625 -160.65625 C 3.882812 -162.644531 1.109375 -163.722656 -1.421875 -163.890625 L -1.421875 -168.640625 C 1.742188 -168.484375 5.671875 -168.328125 10.359375 -168.171875 C 15.046875 -168.015625 19.613281 -167.9375 24.0625 -167.9375 C 30.25 -167.9375 36.039062 -168.015625 41.4375 -168.171875 C 46.84375 -168.328125 51.210938 -168.484375 54.546875 -168.640625 L 54.546875 -163.890625 C 49.148438 -163.722656 45.0625 -163.082031 42.28125 -161.96875 C 39.5 -160.863281 37.988281 -158.921875 37.75 -156.140625 C 37.507812 -153.359375 38.425781 -149.269531 40.5 -143.875 L 84.796875 -26.4375 L 80.984375 -22.390625 L 122.4375 -130.0625 C 125.769531 -138.632812 127.359375 -145.34375 127.203125 -150.1875 C 127.046875 -155.03125 125.21875 -158.484375 121.71875 -160.546875 C 118.226562 -162.609375 113.148438 -163.722656 106.484375 -163.890625 L 106.484375 -168.640625 C 111.085938 -168.484375 115.769531 -168.328125 120.53125 -168.171875 C 125.289062 -168.015625 129.738281 -167.9375 133.875 -167.9375 C 138 -167.9375 141.410156 -168.015625 144.109375 -168.171875 C 146.804688 -168.328125 149.347656 -168.484375 151.734375 -168.640625 Z M 151.734375 -168.640625 "/></g></g></g><g fill="#000000" fill-opacity="1"><g transform="translate(139.909237, 329.752068)"><g><path d="M 16.289062 -19.859375 C 18.148438 -19.859375 18.269531 -18.300781 17.460938 -15.839844 L 14.429688 -6.421875 C 14.339844 -6.121094 13.890625 -6.121094 13.800781 -6.421875 L 10.800781 -15.78125 C 9.988281 -18.269531 10.078125 -19.859375 11.96875 -19.859375 L 11.96875 -21 L 0.75 -21 L 0.75 -19.859375 C 2.640625 -19.859375 3.808594 -18.269531 4.679688 -15.78125 L 10.199219 0 L 16.019531 0 L 15.660156 -1.140625 C 15.480469 -1.648438 15.511719 -2.191406 15.660156 -2.699219 L 20.25 -15.78125 C 21.121094 -18.269531 22.289062 -19.859375 24.179688 -19.859375 L 24.179688 -21 L 16.289062 -21 Z M 16.289062 -19.859375 "/></g></g></g><g fill="#000000" fill-opacity="1"><g transform="translate(178.129216, 329.752068)"><g><path d="M 10.738281 -2.25 C 10.410156 -2.25 10.140625 -2.519531 10.140625 -2.851562 L 10.140625 -8.730469 C 10.140625 -9.089844 10.441406 -9.359375 10.769531 -9.328125 C 13.078125 -9.210938 14.21875 -8.371094 14.21875 -6.871094 L 15.359375 -6.871094 L 15.359375 -14.128906 L 14.21875 -14.128906 C 14.21875 -12.539062 13.140625 -11.761719 10.769531 -11.640625 C 10.441406 -11.640625 10.140625 -11.910156 10.140625 -12.238281 L 10.140625 -18.121094 C 10.140625 -18.449219 10.410156 -18.71875 10.738281 -18.71875 L 14.011719 -18.71875 C 16.171875 -18.71875 17.761719 -17.429688 18.300781 -15.210938 L 19.410156 -15.210938 L 18.691406 -21 L 1.800781 -21 L 1.800781 -19.859375 C 3.480469 -19.859375 4.261719 -18.601562 4.289062 -15.929688 L 4.289062 -5.070312 C 4.261719 -2.371094 3.480469 -1.140625 1.800781 -1.140625 L 1.800781 0 L 19.109375 0 L 19.828125 -5.761719 L 18.71875 -5.761719 C 18.179688 -3.570312 16.589844 -2.25 14.429688 -2.25 Z M 10.738281 -2.25 "/></g></g></g><g fill="#000000" fill-opacity="1"><g transform="translate(212.2992, 329.752068)"><g><path d="M 0.75 -15.238281 L 1.890625 -15.238281 C 2.339844 -17.070312 3.628906 -18.71875 6.148438 -18.71875 L 7.859375 -18.71875 C 8.191406 -18.71875 8.460938 -18.480469 8.460938 -18.121094 L 8.460938 -4.859375 C 8.398438 -2.578125 7.769531 -1.140625 5.96875 -1.140625 L 5.96875 0 L 16.800781 0 L 16.800781 -1.140625 C 14.910156 -1.140625 14.308594 -2.730469 14.308594 -5.21875 L 14.308594 -18.121094 C 14.308594 -18.480469 14.550781 -18.71875 14.910156 -18.71875 L 16.621094 -18.71875 C 19.109375 -18.71875 20.429688 -17.070312 20.878906 -15.238281 L 22.019531 -15.238281 L 21.300781 -21 L 1.46875 -21 Z M 0.75 -15.238281 "/></g></g></g><g fill="#000000" fill-opacity="1"><g transform="translate(102.685956, 303.95207)"><g><path d="M 11.0625 -25 L 8.890625 -24.609375 L 13.921875 -7.5625 L 14.28125 -6 L 14.390625 -6 L 14.734375 -7.515625 L 19.78125 -24.609375 L 17.640625 -25 L 17.640625 -28.4375 L 28.03125 -28.4375 L 28.03125 -25 L 25.640625 -24.6875 L 17.265625 0 L 11.40625 0 L 3.015625 -24.6875 L 0.671875 -25 L 0.671875 -28.4375 L 11.0625 -28.4375 Z M 11.0625 -25 "/></g></g></g><g fill="#000000" fill-opacity="1"><g transform="translate(131.355029, 303.95207)"><g><path d="M 1.078125 -25 L 1.078125 -28.4375 L 12.859375 -28.4375 L 12.859375 -25 L 9.8125 -24.421875 L 9.8125 -4 L 12.859375 -3.421875 L 12.859375 0 L 1.078125 0 L 1.078125 -3.421875 L 4.125 -4 L 4.125 -24.421875 Z M 1.078125 -25 "/></g></g></g><g fill="#000000" fill-opacity="1"><g transform="translate(145.279455, 303.95207)"><g><path d="M 13.875 -28.4375 C 17.101562 -28.4375 19.632812 -27.695312 21.46875 -26.21875 C 23.300781 -24.738281 24.21875 -22.695312 24.21875 -20.09375 C 24.21875 -18.664062 23.832031 -17.421875 23.0625 -16.359375 C 22.300781 -15.304688 21.175781 -14.457031 19.6875 -13.8125 C 21.363281 -13.3125 22.570312 -12.484375 23.3125 -11.328125 C 24.050781 -10.179688 24.421875 -8.753906 24.421875 -7.046875 L 24.421875 -5.609375 C 24.421875 -4.984375 24.539062 -4.5 24.78125 -4.15625 C 25.03125 -3.8125 25.441406 -3.601562 26.015625 -3.53125 L 26.71875 -3.4375 L 26.71875 0 L 23.765625 0 C 21.910156 0 20.601562 -0.5 19.84375 -1.5 C 19.09375 -2.507812 18.71875 -3.804688 18.71875 -5.390625 L 18.71875 -7.015625 C 18.71875 -8.390625 18.347656 -9.472656 17.609375 -10.265625 C 16.867188 -11.054688 15.832031 -11.46875 14.5 -11.5 L 9.828125 -11.5 L 9.828125 -4 L 12.875 -3.421875 L 12.875 0 L 1.09375 0 L 1.09375 -3.421875 L 4.125 -4 L 4.125 -24.421875 L 1.09375 -25 L 1.09375 -28.4375 Z M 9.828125 -15.90625 L 13.765625 -15.90625 C 15.359375 -15.90625 16.550781 -16.242188 17.34375 -16.921875 C 18.132812 -17.597656 18.53125 -18.570312 18.53125 -19.84375 C 18.53125 -21.125 18.132812 -22.144531 17.34375 -22.90625 C 16.5625 -23.664062 15.40625 -24.046875 13.875 -24.046875 L 9.828125 -24.046875 Z M 9.828125 -15.90625 "/></g></g></g><g fill="#000000" fill-opacity="1"><g transform="translate(172.776768, 303.95207)"><g><path d="M 26.140625 -28.4375 L 26.140625 -20.859375 L 21.765625 -20.859375 L 21.53125 -24.046875 L 16.296875 -24.046875 L 16.296875 -4 L 19.34375 -3.421875 L 19.34375 0 L 7.546875 0 L 7.546875 -3.421875 L 10.59375 -4 L 10.59375 -24.046875 L 5.375 -24.046875 L 5.140625 -20.859375 L 0.78125 -20.859375 L 0.78125 -28.4375 Z M 26.140625 -28.4375 "/></g></g></g><g fill="#000000" fill-opacity="1"><g transform="translate(199.668677, 303.95207)"><g><path d="M 12.546875 -28.4375 L 12.546875 -25 L 9.5 -24.421875 L 9.5 -9.578125 C 9.5 -7.703125 10 -6.296875 11 -5.359375 C 12.007812 -4.429688 13.394531 -3.96875 15.15625 -3.96875 C 16.9375 -3.96875 18.332031 -4.425781 19.34375 -5.34375 C 20.363281 -6.269531 20.875 -7.679688 20.875 -9.578125 L 20.875 -24.421875 L 17.859375 -25 L 17.859375 -28.4375 L 29.625 -28.4375 L 29.625 -25 L 26.578125 -24.421875 L 26.578125 -9.578125 C 26.578125 -6.378906 25.523438 -3.914062 23.421875 -2.1875 C 21.328125 -0.457031 18.570312 0.40625 15.15625 0.40625 C 11.757812 0.40625 9.015625 -0.457031 6.921875 -2.1875 C 4.835938 -3.914062 3.796875 -6.378906 3.796875 -9.578125 L 3.796875 -24.421875 L 0.765625 -25 L 0.765625 -28.4375 Z M 12.546875 -28.4375 "/></g></g></g><g fill="#000000" fill-opacity="1"><g transform="translate(229.880574, 303.95207)"><g><path d="M 0.796875 -3.421875 L 2.828125 -3.71875 L 11.484375 -28.4375 L 17.328125 -28.4375 L 25.921875 -3.71875 L 27.953125 -3.421875 L 27.953125 0 L 18.265625 0 L 18.265625 -3.421875 L 20.234375 -3.765625 L 18.984375 -7.671875 L 9.765625 -7.671875 L 8.515625 -3.765625 L 10.484375 -3.421875 L 10.484375 0 L 0.796875 0 Z M 11.109375 -11.875 L 17.640625 -11.875 L 14.4375 -21.890625 L 14.3125 -21.890625 Z M 11.109375 -11.875 "/></g></g></g><g fill="#000000" fill-opacity="1"><g transform="translate(258.60824, 303.95207)"><g><path d="M 1.09375 0 L 1.09375 -3.421875 L 4.125 -4 L 4.125 -24.421875 L 1.09375 -25 L 1.09375 -28.4375 L 12.875 -28.4375 L 12.875 -25 L 9.828125 -24.421875 L 9.828125 -4.375 L 17.859375 -4.375 L 18.125 -7.953125 L 22.484375 -7.953125 L 22.484375 0 Z M 1.09375 0 "/></g></g></g><g fill="#000000" fill-opacity="1"><g transform="translate(140.430772, 266.977865)"><g><path d="M 151.734375 -168.640625 L 151.734375 -163.890625 C 148.710938 -163.253906 145.492188 -161.425781 142.078125 -158.40625 C 138.671875 -155.382812 135.617188 -150.300781 132.921875 -143.15625 L 76.9375 1.1875 C 76.625 1.1875 76.304688 1.1875 75.984375 1.1875 C 75.671875 1.1875 75.351562 1.1875 75.03125 1.1875 C 74.71875 1.1875 74.398438 1.1875 74.078125 1.1875 C 73.765625 1.1875 73.445312 1.1875 73.125 1.1875 L 15 -148.640625 C 12.625 -154.671875 9.925781 -158.675781 6.90625 -160.65625 C 3.882812 -162.644531 1.109375 -163.722656 -1.421875 -163.890625 L -1.421875 -168.640625 C 1.742188 -168.484375 5.671875 -168.328125 10.359375 -168.171875 C 15.046875 -168.015625 19.613281 -167.9375 24.0625 -167.9375 C 30.25 -167.9375 36.039062 -168.015625 41.4375 -168.171875 C 46.84375 -168.328125 51.210938 -168.484375 54.546875 -168.640625 L 54.546875 -163.890625 C 49.148438 -163.722656 45.0625 -163.082031 42.28125 -161.96875 C 39.5 -160.863281 37.988281 -158.921875 37.75 -156.140625 C 37.507812 -153.359375 38.425781 -149.269531 40.5 -143.875 L 84.796875 -26.4375 L 80.984375 -22.390625 L 122.4375 -130.0625 C 125.769531 -138.632812 127.359375 -145.34375 127.203125 -150.1875 C 127.046875 -155.03125 125.21875 -158.484375 121.71875 -160.546875 C 118.226562 -162.609375 113.148438 -163.722656 106.484375 -163.890625 L 106.484375 -168.640625 C 111.085938 -168.484375 115.769531 -168.328125 120.53125 -168.171875 C 125.289062 -168.015625 129.738281 -167.9375 133.875 -167.9375 C 138 -167.9375 141.410156 -168.015625 144.109375 -168.171875 C 146.804688 -168.328125 149.347656 -168.484375 151.734375 -168.640625 Z M 151.734375 -168.640625 "/></g></g></g><g clip-path="url(#e55045b1be)"><g clip-path="url(#0f40f2f1fc)"><g clip-path="url(#fc2eeef2e6)"><path fill="#ffffff" d="M 213.546875 268.765625 L 209.34375 270.398438 L 186.4375 211.425781 L 190.640625 209.792969 Z M 213.546875 268.765625 " fill-opacity="1" fill-rule="nonzero"/></g></g></g><g clip-path="url(#cd8fcd88bf)"><g clip-path="url(#7c2d3f7a10)"><g clip-path="url(#9fc7d6703a)"><path fill="#ffffff" d="M 220.207031 270.398438 L 216.722656 269.019531 L 244.613281 198.59375 L 248.097656 199.972656 Z M 220.207031 270.398438 " fill-opacity="1" fill-rule="nonzero"/></g></g></g><g clip-path="url(#540e62f75f)"><g clip-path="url(#8876709bb7)"><g clip-path="url(#bda19a77c8)"><path fill="#ffffff" d="M 153.113281 118.988281 C 131.085938 122.53125 116.042969 143.332031 119.585938 165.363281 L 118.839844 165.484375 C 118.625 164.148438 118.472656 162.808594 118.390625 161.460938 C 118.304688 160.113281 118.289062 158.765625 118.339844 157.414062 C 118.386719 156.066406 118.503906 154.722656 118.683594 153.382812 C 118.863281 152.046875 119.109375 150.71875 119.421875 149.40625 C 119.734375 148.09375 120.109375 146.796875 120.546875 145.519531 C 120.988281 144.242188 121.488281 142.992188 122.050781 141.761719 C 122.613281 140.535156 123.234375 139.335938 123.914062 138.171875 C 124.59375 137.003906 125.328125 135.875 126.121094 134.78125 C 126.910156 133.683594 127.753906 132.632812 128.648438 131.621094 C 129.542969 130.609375 130.484375 129.644531 131.476562 128.726562 C 132.464844 127.808594 133.496094 126.9375 134.574219 126.121094 C 135.648438 125.304688 136.761719 124.542969 137.910156 123.835938 C 139.058594 123.125 140.242188 122.476562 141.457031 121.886719 C 142.667969 121.292969 143.910156 120.761719 145.175781 120.292969 C 146.441406 119.824219 147.726562 119.417969 149.035156 119.074219 C 150.339844 118.730469 151.660156 118.453125 152.992188 118.238281 " fill-opacity="1" fill-rule="nonzero"/></g></g></g><g clip-path="url(#2750352261)"><g clip-path="url(#36ff9c9fc7)"><g clip-path="url(#28dbd385f4)"><path fill="#ffffff" d="M 149.65625 125.554688 C 132.289062 129.636719 121.480469 147.085938 125.558594 164.453125 L 124.96875 164.589844 C 124.722656 163.539062 124.527344 162.480469 124.382812 161.410156 C 124.238281 160.339844 124.148438 159.265625 124.109375 158.183594 C 124.074219 157.105469 124.089844 156.027344 124.15625 154.949219 C 124.226562 153.871094 124.347656 152.800781 124.519531 151.734375 C 124.695312 150.667969 124.917969 149.613281 125.195312 148.570312 C 125.472656 147.527344 125.800781 146.5 126.179688 145.488281 C 126.558594 144.476562 126.984375 143.488281 127.460938 142.519531 C 127.9375 141.550781 128.460938 140.605469 129.027344 139.6875 C 129.597656 138.769531 130.210938 137.882812 130.867188 137.023438 C 131.519531 136.167969 132.21875 135.34375 132.953125 134.554688 C 133.691406 133.765625 134.464844 133.015625 135.277344 132.300781 C 136.085938 131.589844 136.929688 130.917969 137.808594 130.285156 C 138.683594 129.65625 139.589844 129.070312 140.523438 128.53125 C 141.460938 127.988281 142.417969 127.496094 143.402344 127.046875 C 144.382812 126.601562 145.386719 126.203125 146.410156 125.855469 C 147.429688 125.507812 148.46875 125.210938 149.519531 124.964844 " fill-opacity="1" fill-rule="nonzero"/></g></g></g><g clip-path="url(#e6f9f7c7b1)"><path fill="#ffffff" d="M 255.335938 142.949219 C 255.800781 142.949219 256.175781 143.324219 256.175781 143.785156 L 256.175781 243.746094 C 256.175781 244.207031 255.800781 244.582031 255.335938 244.582031 C 254.875 244.582031 254.5 244.207031 254.5 243.746094 L 254.5 143.785156 C 254.5 143.324219 254.875 142.949219 255.335938 142.949219 Z M 255.335938 142.949219 " fill-opacity="1" fill-rule="nonzero"/></g><g clip-path="url(#1b723ebef7)"><g clip-path="url(#268817f863)"><g clip-path="url(#8b3d9e21e7)"><path fill="#ffffff" d="M 192.371094 150.949219 L 180.253906 118.234375 L 178.832031 118.761719 L 190.949219 151.476562 Z M 192.371094 150.949219 " fill-opacity="1" fill-rule="nonzero"/></g></g></g><g clip-path="url(#fed961ecb1)"><g clip-path="url(#31b9fc15b6)"><g clip-path="url(#7e5a88d354)"><path fill="#ffffff" d="M 176.246094 171.460938 L 154.714844 117.15625 L 152.355469 118.089844 L 173.886719 172.394531 Z M 176.246094 171.460938 " fill-opacity="1" fill-rule="nonzero"/></g></g></g><g clip-path="url(#fbeda9f4e7)"><path fill="#ffffff" d="M 250.367188 192.136719 L 250.367188 164.714844 L 249.175781 164.714844 L 249.175781 192.136719 Z M 250.367188 192.136719 " fill-opacity="1" fill-rule="nonzero"/></g><g clip-path="url(#0e51280550)"><g clip-path="url(#3f17a55cb4)"><g clip-path="url(#01d0b4a17c)"><path fill="#ffffff" d="M 201.660156 174.898438 L 191.480469 149.4375 L 190.375 149.878906 L 200.554688 175.34375 Z M 201.660156 174.898438 " fill-opacity="1" fill-rule="nonzero"/></g></g></g><g clip-path="url(#bc1abd1ee9)"><g clip-path="url(#9ccdf70153)"><g clip-path="url(#c176e0215f)"><path fill="#ffffff" d="M 188.347656 203.511719 L 176.089844 170.851562 L 174.671875 171.382812 L 186.929688 204.046875 Z M 188.347656 203.511719 " fill-opacity="1" fill-rule="nonzero"/></g></g></g><g clip-path="url(#052ef29420)"><path fill="#ffffff" d="M 192.378906 119.210938 L 219.800781 119.210938 L 219.800781 118.015625 L 192.378906 118.015625 Z M 192.378906 119.210938 " fill-opacity="1" fill-rule="nonzero"/></g><g clip-path="url(#3e582fec5a)"><path fill="#ffffff" d="M 186.449219 124.953125 L 213.871094 124.953125 L 213.871094 123.761719 L 186.449219 123.761719 Z M 186.449219 124.953125 " fill-opacity="1" fill-rule="nonzero"/></g></svg>